<?xml version="1.0" encoding="UTF-8"?>
<svg id="Layer_1" data-name="Layer 1" xmlns="http://www.w3.org/2000/svg" viewBox="0 0 547.05 324.18">
  <g>
    <path d="M158.55,118.34c-20.39-.07-90.97-.02-95.9-.02-.15.02-.24.06-.3.19-.11.22-.12.73-.12,1.75,0,3.34,0,12.44,0,15.49,0,2.13.14,1.62,1.24,1.7,11.23,0,85.8,0,93.56,0,18.6.31,18.76,26.51.15,26.94-7.19.11-16.96.02-23.56.06-1.65.03-1.88.12-1.9,1.19,0,4.61,0,34.59,0,39.2,0,1.76,1.53,1.01,3.44,1.19,3.36,0,8.89,0,12.29,0,2.83.25,2.45-1.2,2.46-3.53,0-2.98,0-13.2,0-16.08,0-1.42.06-2.22.79-2.54,2.48-.7,7.75-.02,10.86-.59,39.87-5.8,37.46-62.47-2.83-64.93h-.18Z"/>
    <path d="M132.75,148.64c0,8.8-3.31,17.03-9.35,23.16-4.64,4.72-13.03,10.34-26.66,10.34-23.65,0-36.03-16.85-36.03-33.5,0-3.49.53-6.9,1.55-10.13h21.94c-3.04,2.82-4.29,6.63-4.29,10.13,0,6.59,4.42,14.29,16.82,14.29,5.52,0,10-1.58,12.96-4.59,2.48-2.53,3.84-5.97,3.84-9.7,0-3.5-1.25-7.31-4.27-10.13h21.91c1.04,3.28,1.57,6.71,1.57,10.13Z"/>
  </g>
  <g>
    <g>
      <path d="M232.03,168.86c-2.43,0-4.62-.59-6.56-1.76s-3.47-2.86-4.6-5.08c-1.13-2.21-1.69-4.86-1.69-7.96s.56-5.77,1.69-7.99c1.13-2.22,2.66-3.91,4.6-5.09s4.12-1.76,6.56-1.76,4.63.59,6.56,1.76,3.47,2.87,4.59,5.09c1.13,2.22,1.69,4.88,1.69,7.99s-.56,5.75-1.69,7.96c-1.13,2.21-2.66,3.9-4.59,5.08s-4.12,1.76-6.56,1.76ZM232.03,163.62c1.42,0,2.67-.37,3.75-1.1,1.07-.73,1.91-1.81,2.5-3.24s.89-3.16.89-5.21-.3-3.82-.89-5.25-1.43-2.5-2.5-3.24c-1.07-.73-2.32-1.1-3.75-1.1s-2.65.37-3.73,1.11c-1.07.74-1.91,1.82-2.5,3.25s-.89,3.17-.89,5.23.3,3.78.89,5.2,1.43,2.5,2.5,3.24c1.07.74,2.32,1.11,3.73,1.11Z"/>
      <path d="M248.7,176.54v-29.29h5.41v3.35h.18c.31-.62.72-1.21,1.22-1.77.51-.56,1.14-1.02,1.9-1.37.76-.35,1.66-.53,2.72-.53,1.56,0,2.97.43,4.24,1.28s2.27,2.09,3.01,3.72c.74,1.63,1.11,3.61,1.11,5.94s-.36,4.28-1.09,5.93c-.72,1.64-1.72,2.9-2.98,3.77-1.26.87-2.71,1.3-4.33,1.3-1.03,0-1.92-.18-2.68-.54s-1.39-.83-1.9-1.39c-.51-.57-.91-1.17-1.21-1.8h-.13v11.41h-5.49ZM258.49,164.19c.93,0,1.72-.26,2.38-.78s1.15-1.26,1.5-2.22c.35-.95.52-2.06.52-3.32s-.17-2.38-.52-3.33c-.34-.94-.84-1.67-1.49-2.19s-1.45-.78-2.39-.78-1.72.26-2.4.78-1.2,1.25-1.55,2.19c-.35.94-.52,2.05-.52,3.34s.18,2.37.54,3.31c.36.95.88,1.68,1.55,2.22.67.53,1.46.79,2.38.79Z"/>
      <path d="M282.66,147.25v4.45h-12.39v-4.45h12.39ZM273.28,141.95h5.49v20.19c0,.7.14,1.2.41,1.5.28.3.76.45,1.46.45.25,0,.56-.02.96-.06.39-.04.69-.08.9-.12l.53,4.41c-.52.13-1.07.21-1.68.26s-1.18.07-1.75.07c-2.09,0-3.66-.49-4.73-1.49-1.07-.99-1.6-2.46-1.6-4.39v-20.82Z"/>
      <path d="M288.79,144.5c-.86,0-1.58-.29-2.17-.86s-.88-1.29-.88-2.14.29-1.55.88-2.13,1.31-.87,2.17-.87,1.57.29,2.16.87.89,1.29.89,2.13-.3,1.56-.89,2.14-1.32.86-2.16.86ZM286.05,168.46v-21.21h5.49v21.21h-5.49Z"/>
      <path d="M296.03,168.46v-28.81h5.49v28.81h-5.49ZM301,162.27v-6.88h.74l6.78-8.14h6.39l-8.88,10.65h-1.29l-3.74,4.37ZM308.85,168.46l-6.17-9.26,3.65-4.08,8.95,13.34h-6.43Z"/>
      <path d="M323.4,168.86c-1.29,0-2.45-.24-3.47-.72-1.03-.48-1.83-1.18-2.42-2.13-.59-.94-.88-2.11-.88-3.52,0-1.19.21-2.18.63-2.98.42-.8.99-1.44,1.7-1.92s1.54-.84,2.46-1.09,1.9-.43,2.93-.53c1.18-.14,2.13-.27,2.85-.38s1.25-.28,1.57-.51.49-.57.49-1.03v-.12c0-.58-.12-1.07-.37-1.48-.25-.41-.61-.72-1.1-.95-.48-.23-1.06-.34-1.74-.34s-1.31.11-1.83.34c-.52.22-.94.53-1.26.91s-.55.81-.68,1.29l-5.06-.56c.27-1.31.8-2.44,1.58-3.36.79-.93,1.8-1.64,3.03-2.14,1.23-.5,2.66-.75,4.28-.75,1.18,0,2.29.14,3.33.44,1.04.29,1.96.73,2.75,1.31s1.41,1.34,1.86,2.25.67,1.99.67,3.21v14.33h-5.25v-2.96h-.17c-.33.67-.76,1.26-1.3,1.75-.53.49-1.18.89-1.94,1.18-.76.29-1.65.43-2.67.43ZM324.96,164.82c.86,0,1.62-.18,2.27-.53.66-.36,1.16-.83,1.52-1.44.36-.6.53-1.29.53-2.05v-2.22c-.16.12-.39.22-.7.32-.31.1-.65.18-1.04.26s-.78.15-1.17.21-.77.12-1.12.17c-.65.1-1.23.27-1.75.49-.52.22-.92.52-1.21.89-.29.37-.43.84-.43,1.42,0,.53.14.98.41,1.35.27.37.64.66,1.1.84.46.19.99.28,1.59.28Z"/>
      <path d="M348.07,168.46v-28.81h5.63v23.86h12.04v4.95h-17.68Z"/>
      <path d="M378.39,168.9c-2.05,0-3.82-.45-5.32-1.35s-2.65-2.18-3.47-3.83c-.82-1.65-1.22-3.58-1.22-5.78s.41-4.09,1.22-5.75,1.96-2.95,3.43-3.89c1.47-.94,3.18-1.4,5.13-1.4,1.37,0,2.65.23,3.81.71,1.17.47,2.19,1.17,3.06,2.09s1.55,2.05,2.04,3.39.74,2.89.74,4.66v1.59h-17.25v-3.64h14.55l-2.52.95c0-1.11-.17-2.06-.51-2.86-.34-.8-.83-1.42-1.47-1.86s-1.43-.66-2.37-.66-1.73.22-2.4.67-1.18,1.06-1.52,1.84c-.34.78-.52,1.67-.52,2.68v2.57c0,1.17.19,2.18.58,3,.39.83.93,1.46,1.64,1.89.71.42,1.54.64,2.51.64.68,0,1.28-.1,1.81-.3s.99-.49,1.35-.87c.37-.38.64-.85.83-1.4l5.01.66c-.31,1.25-.88,2.34-1.71,3.29s-1.88,1.67-3.13,2.19-2.68.78-4.29.78Z"/>
      <path d="M396.84,156.34v12.12h-5.49v-21.21h5.25l.07,5.38h-.53c.56-1.82,1.4-3.22,2.51-4.22,1.11-.99,2.54-1.49,4.3-1.49,1.41,0,2.64.32,3.68.97s1.86,1.57,2.44,2.77.87,2.67.87,4.38v13.42h-5.51v-12.41c0-1.35-.32-2.4-.97-3.13s-1.54-1.1-2.7-1.1c-.76,0-1.44.17-2.04.5s-1.07.84-1.4,1.52c-.33.68-.5,1.51-.5,2.5Z"/>
      <path d="M422.57,168.9c-1.66,0-3.13-.25-4.43-.76s-2.34-1.25-3.14-2.23-1.3-2.16-1.49-3.54l5.19-.6c.22.95.66,1.68,1.32,2.19.66.5,1.54.76,2.64.76,1.03,0,1.84-.2,2.44-.61.6-.41.89-.94.89-1.6,0-.54-.22-.99-.65-1.34-.44-.35-1.08-.63-1.94-.82l-3.52-.73c-1.95-.41-3.42-1.13-4.4-2.15-.98-1.02-1.47-2.33-1.47-3.93,0-1.37.35-2.54,1.06-3.53s1.7-1.75,2.97-2.28c1.28-.54,2.77-.8,4.49-.8s3.06.25,4.27.76,2.19,1.21,2.91,2.13,1.18,2,1.36,3.27l-4.95.6c-.14-.76-.5-1.39-1.1-1.88-.6-.5-1.4-.75-2.39-.75-.92,0-1.67.2-2.26.61-.58.41-.87.93-.87,1.58,0,.54.2.99.61,1.35.41.36,1.06.64,1.95.83l3.68.75c1.99.43,3.46,1.11,4.42,2.05.96.94,1.44,2.18,1.44,3.71,0,1.41-.38,2.63-1.15,3.67s-1.83,1.86-3.19,2.44c-1.36.58-2.92.87-4.69.87Z"/>
      <path d="M444.28,168.9c-2.05,0-3.82-.45-5.32-1.35s-2.65-2.18-3.47-3.83c-.82-1.65-1.22-3.58-1.22-5.78s.41-4.09,1.22-5.75,1.96-2.95,3.43-3.89c1.47-.94,3.18-1.4,5.13-1.4,1.37,0,2.65.23,3.81.71,1.17.47,2.19,1.17,3.06,2.09s1.55,2.05,2.04,3.39.74,2.89.74,4.66v1.59h-17.25v-3.64h14.55l-2.52.95c0-1.11-.17-2.06-.51-2.86-.34-.8-.83-1.42-1.47-1.86s-1.43-.66-2.37-.66-1.73.22-2.4.67-1.18,1.06-1.52,1.84c-.34.78-.52,1.67-.52,2.68v2.57c0,1.17.19,2.18.58,3,.39.83.93,1.46,1.64,1.89.71.42,1.54.64,2.51.64.68,0,1.28-.1,1.81-.3s.99-.49,1.35-.87c.37-.38.64-.85.83-1.4l5.01.66c-.31,1.25-.88,2.34-1.71,3.29s-1.88,1.67-3.13,2.19-2.68.78-4.29.78Z"/>
      <path d="M465.39,168.9c-1.66,0-3.13-.25-4.43-.76s-2.34-1.25-3.14-2.23-1.3-2.16-1.49-3.54l5.19-.6c.22.95.66,1.68,1.32,2.19.66.5,1.54.76,2.64.76,1.03,0,1.84-.2,2.44-.61.6-.41.89-.94.89-1.6,0-.54-.22-.99-.65-1.34-.44-.35-1.08-.63-1.94-.82l-3.52-.73c-1.95-.41-3.42-1.13-4.4-2.15-.98-1.02-1.47-2.33-1.47-3.93,0-1.37.35-2.54,1.06-3.53s1.7-1.75,2.97-2.28c1.28-.54,2.77-.8,4.49-.8s3.06.25,4.27.76,2.19,1.21,2.91,2.13,1.18,2,1.36,3.27l-4.95.6c-.14-.76-.5-1.39-1.1-1.88-.6-.5-1.4-.75-2.39-.75-.92,0-1.67.2-2.26.61-.58.41-.87.93-.87,1.58,0,.54.2.99.61,1.35.41.36,1.06.64,1.95.83l3.68.75c1.99.43,3.46,1.11,4.42,2.05.96.94,1.44,2.18,1.44,3.71,0,1.41-.38,2.63-1.15,3.67s-1.83,1.86-3.19,2.44c-1.36.58-2.92.87-4.69.87Z"/>
    </g>
    <g>
      <path d="M221.88,202.21v-13.24h6.72v.41h-6.33v6.01h5.98v.41h-5.98v6.01h6.52v.41h-6.91Z"/>
      <path d="M230.58,202.21l3.69-5.24v.3l-3.53-5.01h.48l1.99,2.83c.21.31.43.62.64.92.21.31.43.62.64.93h-.19c.21-.31.43-.62.64-.93.21-.31.43-.62.64-.92l1.99-2.83h.48l-3.53,5.01v-.3l3.69,5.24h-.48l-2.3-3.27c-.19-.28-.38-.55-.57-.83-.19-.27-.37-.55-.57-.82h.19c-.19.27-.38.55-.57.82-.19.27-.38.55-.58.83l-2.29,3.27h-.48Z"/>
      <path d="M243.42,202.35c-.75,0-1.41-.22-2.01-.67-.59-.45-1.06-1.05-1.4-1.82-.35-.77-.52-1.64-.52-2.62s.17-1.85.52-2.62c.34-.77.81-1.38,1.4-1.82.59-.45,1.26-.67,2.01-.67.52,0,.98.1,1.37.29.39.2.71.43.97.69s.46.5.6.72c.14.22.22.35.24.39l-.34.21s-.1-.16-.22-.36c-.12-.2-.3-.41-.54-.65-.23-.23-.52-.44-.87-.61-.34-.17-.75-.26-1.22-.26-.67,0-1.27.2-1.8.61-.53.41-.96.96-1.27,1.67-.31.71-.47,1.52-.47,2.43s.16,1.72.47,2.43.74,1.26,1.27,1.67c.53.4,1.13.6,1.8.6.47,0,.88-.09,1.23-.26.35-.17.65-.38.89-.62.24-.24.42-.45.55-.65.13-.2.2-.32.22-.35l.34.2s-.1.17-.25.39c-.14.21-.35.46-.61.72-.26.26-.6.5-.99.69-.39.2-.85.3-1.38.3Z"/>
      <path d="M252.91,202.42c-.82,0-1.55-.23-2.16-.68-.62-.45-1.1-1.07-1.44-1.85-.34-.78-.51-1.66-.51-2.63s.17-1.85.52-2.62c.34-.78.81-1.39,1.4-1.84.59-.45,1.26-.68,2.01-.68.55,0,1.06.12,1.53.37.47.25.88.59,1.23,1.03s.62.96.81,1.55.29,1.24.29,1.94v.23h-7.58v-.41h7.37l-.17.18c0-.83-.15-1.58-.45-2.26-.3-.68-.71-1.22-1.24-1.62-.52-.4-1.12-.6-1.79-.6s-1.24.2-1.78.61c-.54.41-.96.96-1.28,1.65-.32.7-.48,1.48-.48,2.36v.05c0,.87.15,1.67.44,2.4.29.72.71,1.31,1.27,1.75.56.44,1.23.66,2.02.66.59,0,1.08-.11,1.47-.32.39-.22.71-.47.96-.75.24-.29.42-.52.53-.72l.32.23c-.14.25-.35.52-.63.83-.28.31-.64.57-1.08.8-.44.23-.96.34-1.58.34Z"/>
      <path d="M259.32,205.92v-13.65h.39v2.54h.05c.16-.55.4-1.03.72-1.43s.68-.71,1.11-.93c.43-.21.89-.32,1.39-.32.74,0,1.38.22,1.93.68s.97,1.06,1.27,1.84.45,1.65.45,2.62-.15,1.86-.45,2.63c-.3.78-.72,1.4-1.26,1.84-.54.45-1.19.68-1.94.68-.51,0-.97-.11-1.4-.33-.42-.22-.79-.53-1.1-.94s-.55-.88-.72-1.44h-.05v6.21h-.39ZM262.98,202.01c.67,0,1.24-.21,1.73-.63.48-.42.86-.99,1.13-1.7.26-.72.4-1.52.4-2.42s-.13-1.7-.4-2.42c-.27-.71-.64-1.28-1.13-1.69-.49-.41-1.06-.62-1.73-.62s-1.24.21-1.73.62-.87.98-1.13,1.69c-.27.72-.4,1.52-.4,2.42s.13,1.7.4,2.42c.27.72.64,1.29,1.13,1.7s1.07.63,1.74.63Z"/>
      <path d="M271.58,192.27v.41h-3.74v-.41h3.74ZM269.23,189.91h.39v10.41c0,.59.14,1.03.43,1.31.29.28.67.36,1.16.23.05-.01.09-.02.14-.04s.1-.03.14-.04l.09.4c-.05.01-.1.03-.16.04-.05.02-.11.03-.16.04-.63.16-1.13.05-1.49-.33-.37-.38-.55-.92-.55-1.61v-10.41Z"/>
      <path d="M273.82,190c-.11,0-.2-.04-.28-.13-.08-.08-.12-.18-.12-.29s.04-.22.12-.3c.08-.08.17-.12.28-.12s.21.04.28.12c.08.08.12.18.12.3s-.04.21-.12.29c-.08.08-.17.13-.28.13ZM273.63,202.21v-9.94h.39v9.94h-.39Z"/>
      <path d="M280.76,202.42c-.75,0-1.41-.23-2.01-.68-.59-.45-1.06-1.07-1.4-1.84-.35-.78-.52-1.65-.52-2.63s.17-1.85.52-2.63c.34-.77.81-1.38,1.4-1.84.59-.45,1.26-.68,2.01-.68s1.4.22,1.99.68,1.06,1.06,1.4,1.84.52,1.65.52,2.62-.17,1.85-.51,2.63c-.34.78-.81,1.39-1.4,1.84-.59.45-1.26.68-2,.68ZM280.76,202.01c.67,0,1.27-.21,1.8-.62.53-.42.95-.98,1.26-1.7.31-.72.46-1.53.46-2.42s-.15-1.7-.47-2.42c-.31-.71-.73-1.28-1.26-1.69-.53-.41-1.13-.62-1.79-.62s-1.27.21-1.8.63c-.53.42-.96.98-1.27,1.69s-.47,1.51-.47,2.41.15,1.71.46,2.42c.31.72.73,1.28,1.27,1.7.53.41,1.14.62,1.81.62Z"/>
      <path d="M287.87,195.54v6.67h-.39v-9.94h.39v2.13h-.1c.2-.76.6-1.33,1.21-1.71.6-.38,1.26-.57,1.98-.57.65,0,1.22.14,1.71.43.49.29.88.69,1.16,1.2s.42,1.1.42,1.79v6.67h-.39v-6.67c0-.9-.27-1.63-.81-2.18-.54-.55-1.24-.83-2.1-.83-.59,0-1.11.13-1.58.39-.46.26-.83.61-1.1,1.06-.27.45-.4.97-.4,1.55Z"/>
      <path d="M299.79,202.42c-.52,0-1-.11-1.44-.34-.44-.22-.79-.55-1.06-.99s-.4-.96-.4-1.57c0-.34.05-.65.15-.95.1-.29.28-.56.54-.8.26-.24.62-.45,1.09-.62s1.06-.31,1.79-.4c.44-.06.85-.11,1.24-.18.39-.07.7-.17.94-.31.24-.14.36-.34.36-.59v-.59c0-.52-.11-.96-.33-1.34-.22-.38-.53-.68-.93-.88-.4-.21-.87-.32-1.41-.32-.45,0-.86.07-1.23.21-.37.14-.69.34-.96.6-.27.26-.47.58-.61.95l-.37-.16c.15-.41.38-.77.69-1.07.31-.3.67-.53,1.1-.69s.89-.24,1.38-.24.91.07,1.29.22.7.36.97.62.47.58.6.94c.14.36.21.75.21,1.17v7.13h-.39v-2.01h-.05c-.19.45-.45.83-.76,1.17s-.68.59-1.08.78-.85.28-1.32.28ZM299.79,202.01c.6,0,1.14-.17,1.63-.51.48-.34.87-.82,1.16-1.43.29-.61.43-1.32.43-2.11v-1.49c-.12.09-.26.17-.42.24s-.34.14-.54.19c-.2.05-.42.1-.66.14-.24.04-.49.08-.77.11-.85.1-1.51.26-2,.47-.48.21-.83.48-1.03.79-.2.32-.3.69-.3,1.11,0,.5.11.93.33,1.31.22.37.52.66.9.87s.81.31,1.27.31Z"/>
      <path d="M307.18,188.96v13.24h-.39v-13.24h.39Z"/>
      <path d="M320.28,202.38c-1.04,0-1.95-.29-2.74-.86-.79-.57-1.4-1.37-1.84-2.39s-.66-2.2-.66-3.54.22-2.54.66-3.56,1.05-1.82,1.84-2.39c.78-.57,1.7-.86,2.73-.86s1.94.29,2.73.86c.78.57,1.39,1.37,1.83,2.39s.66,2.21.66,3.56-.22,2.53-.66,3.55-1.05,1.82-1.83,2.39-1.69.85-2.73.85ZM320.28,201.98c.95,0,1.79-.27,2.52-.8.72-.54,1.29-1.29,1.7-2.25.41-.96.61-2.07.61-3.33s-.2-2.38-.61-3.34-.97-1.71-1.7-2.25c-.73-.54-1.57-.81-2.52-.81s-1.8.27-2.52.8c-.73.53-1.3,1.28-1.71,2.24-.41.96-.61,2.08-.61,3.36s.2,2.37.61,3.32c.4.96.97,1.71,1.7,2.25.73.54,1.57.81,2.54.81Z"/>
      <path d="M328.46,205.92v-13.65h.39v2.54h.05c.16-.55.4-1.03.72-1.43s.68-.71,1.11-.93c.43-.21.89-.32,1.39-.32.74,0,1.38.22,1.93.68s.97,1.06,1.27,1.84.45,1.65.45,2.62-.15,1.86-.45,2.63c-.3.78-.72,1.4-1.26,1.84-.54.45-1.19.68-1.94.68-.51,0-.97-.11-1.4-.33-.42-.22-.79-.53-1.1-.94s-.55-.88-.72-1.44h-.05v6.21h-.39ZM332.12,202.01c.67,0,1.24-.21,1.73-.63.48-.42.86-.99,1.13-1.7.26-.72.4-1.52.4-2.42s-.13-1.7-.4-2.42c-.27-.71-.64-1.28-1.13-1.69-.49-.41-1.06-.62-1.73-.62s-1.24.21-1.73.62-.87.98-1.13,1.69c-.27.72-.4,1.52-.4,2.42s.13,1.7.4,2.42c.27.72.64,1.29,1.13,1.7s1.07.63,1.74.63Z"/>
      <path d="M340.72,192.27v.41h-3.74v-.41h3.74ZM338.37,189.91h.39v10.41c0,.59.14,1.03.43,1.31.29.28.67.36,1.16.23.05-.01.09-.02.14-.04s.1-.03.14-.04l.09.4c-.05.01-.1.03-.16.04-.05.02-.11.03-.16.04-.63.16-1.13.05-1.49-.33-.37-.38-.55-.92-.55-1.61v-10.41Z"/>
      <path d="M342.96,190c-.11,0-.2-.04-.28-.13-.08-.08-.12-.18-.12-.29s.04-.22.12-.3c.08-.08.17-.12.28-.12s.21.04.28.12c.08.08.12.18.12.3s-.04.21-.12.29c-.08.08-.17.13-.28.13ZM342.77,202.21v-9.94h.39v9.94h-.39Z"/>
      <path d="M349.9,202.35c-.75,0-1.41-.22-2.01-.67-.59-.45-1.06-1.05-1.4-1.82-.35-.77-.52-1.64-.52-2.62s.17-1.85.52-2.62c.34-.77.81-1.38,1.4-1.82.59-.45,1.26-.67,2.01-.67.52,0,.98.1,1.37.29.39.2.71.43.97.69s.46.5.6.72c.14.22.22.35.24.39l-.34.21s-.1-.16-.22-.36c-.12-.2-.3-.41-.54-.65-.23-.23-.52-.44-.87-.61-.34-.17-.75-.26-1.22-.26-.67,0-1.27.2-1.8.61-.53.41-.96.96-1.27,1.67-.31.71-.47,1.52-.47,2.43s.16,1.72.47,2.43.74,1.26,1.27,1.67c.53.4,1.13.6,1.8.6.47,0,.88-.09,1.23-.26.35-.17.65-.38.89-.62.24-.24.42-.45.55-.65.13-.2.2-.32.22-.35l.34.2s-.1.17-.25.39c-.14.21-.35.46-.61.72-.26.26-.6.5-.99.69-.39.2-.85.3-1.38.3Z"/>
      <path d="M358.17,202.42c-.52,0-1-.11-1.44-.34-.44-.22-.79-.55-1.06-.99s-.4-.96-.4-1.57c0-.34.05-.65.15-.95.1-.29.28-.56.54-.8.26-.24.62-.45,1.09-.62s1.06-.31,1.79-.4c.44-.06.85-.11,1.24-.18.39-.07.7-.17.94-.31.24-.14.36-.34.36-.59v-.59c0-.52-.11-.96-.33-1.34-.22-.38-.53-.68-.93-.88-.4-.21-.87-.32-1.41-.32-.45,0-.86.07-1.23.21-.37.14-.69.34-.96.6-.27.26-.47.58-.61.95l-.37-.16c.15-.41.38-.77.69-1.07.31-.3.67-.53,1.1-.69s.89-.24,1.38-.24.91.07,1.29.22.7.36.97.62.47.58.6.94c.14.36.21.75.21,1.17v7.13h-.39v-2.01h-.05c-.19.45-.45.83-.76,1.17s-.68.59-1.08.78-.85.28-1.32.28ZM358.17,202.01c.6,0,1.14-.17,1.63-.51.48-.34.87-.82,1.16-1.43.29-.61.43-1.32.43-2.11v-1.49c-.12.09-.26.17-.42.24s-.34.14-.54.19c-.2.05-.42.1-.66.14-.24.04-.49.08-.77.11-.85.1-1.51.26-2,.47-.48.21-.83.48-1.03.79-.2.32-.3.69-.3,1.11,0,.5.11.93.33,1.31.22.37.52.66.9.87s.81.31,1.27.31Z"/>
      <path d="M365.55,188.96v13.24h-.39v-13.24h.39Z"/>
      <path d="M374.14,202.21v-13.24h3.71c.71,0,1.33.17,1.87.5s.97.79,1.27,1.37c.31.59.46,1.25.46,2s-.15,1.42-.46,2c-.31.58-.73,1.03-1.27,1.37-.54.33-1.16.49-1.87.49h-3.5v-.41h3.5c.63,0,1.18-.15,1.66-.44.48-.29.86-.7,1.14-1.22s.41-1.11.41-1.79-.14-1.27-.41-1.8c-.28-.52-.66-.93-1.14-1.22-.48-.3-1.04-.45-1.66-.45h-3.32v12.84h-.39Z"/>
      <path d="M387.85,202.42c-.82,0-1.55-.23-2.16-.68-.62-.45-1.1-1.07-1.44-1.85-.34-.78-.51-1.66-.51-2.63s.17-1.85.52-2.62c.34-.78.81-1.39,1.4-1.84.59-.45,1.26-.68,2.01-.68.55,0,1.06.12,1.53.37.47.25.88.59,1.23,1.03s.62.96.81,1.55.29,1.24.29,1.94v.23h-7.58v-.41h7.37l-.17.18c0-.83-.15-1.58-.45-2.26-.3-.68-.71-1.22-1.24-1.62-.52-.4-1.12-.6-1.79-.6s-1.24.2-1.78.61c-.54.41-.96.96-1.28,1.65-.32.7-.48,1.48-.48,2.36v.05c0,.87.15,1.67.44,2.4.29.72.71,1.31,1.27,1.75.56.44,1.23.66,2.02.66.59,0,1.08-.11,1.47-.32.39-.22.71-.47.96-.75.24-.29.42-.52.53-.72l.32.23c-.14.25-.35.52-.63.83-.28.31-.64.57-1.08.8-.44.23-.96.34-1.58.34Z"/>
      <path d="M394.26,202.21v-9.94h.39v1.58h.05c.23-.52.59-.93,1.1-1.24.5-.31,1.08-.47,1.73-.47h.2v.41h-.2c-.55,0-1.05.13-1.48.39s-.77.61-1.02,1.06c-.25.45-.37.96-.37,1.54v6.67h-.39Z"/>
      <path d="M403.17,192.27v.41h-4.55v-.41h4.55ZM400.46,202.21v-11.56c0-.47.09-.87.27-1.21.18-.34.42-.6.72-.79.31-.19.65-.28,1.04-.28.18,0,.34,0,.49.03.15.02.28.06.39.11l-.12.39c-.1-.04-.21-.07-.34-.09s-.27-.03-.42-.03c-.47,0-.86.17-1.17.5s-.47.79-.47,1.37v11.56h-.39Z"/>
      <path d="M408.44,202.42c-.75,0-1.41-.23-2.01-.68-.59-.45-1.06-1.07-1.4-1.84-.35-.78-.52-1.65-.52-2.63s.17-1.85.52-2.63c.34-.77.81-1.38,1.4-1.84.59-.45,1.26-.68,2.01-.68s1.4.22,1.99.68,1.06,1.06,1.4,1.84.52,1.65.52,2.62-.17,1.85-.51,2.63c-.34.78-.81,1.39-1.4,1.84-.59.45-1.26.68-2,.68ZM408.44,202.01c.67,0,1.27-.21,1.8-.62.53-.42.95-.98,1.26-1.7.31-.72.46-1.53.46-2.42s-.15-1.7-.47-2.42c-.31-.71-.73-1.28-1.26-1.69-.53-.41-1.13-.62-1.79-.62s-1.27.21-1.8.63c-.53.42-.96.98-1.27,1.69s-.47,1.51-.47,2.41.15,1.71.46,2.42c.31.72.73,1.28,1.27,1.7.53.41,1.14.62,1.81.62Z"/>
      <path d="M415.16,202.21v-9.94h.39v1.58h.05c.23-.52.59-.93,1.1-1.24.5-.31,1.08-.47,1.73-.47h.2v.41h-.2c-.55,0-1.05.13-1.48.39s-.77.61-1.02,1.06c-.25.45-.37.96-.37,1.54v6.67h-.39Z"/>
      <path d="M420.83,202.21v-9.94h.39v2.35h-.14c.13-.59.35-1.06.65-1.43.3-.37.66-.63,1.06-.8s.81-.26,1.23-.26c.7,0,1.3.23,1.79.69.49.46.8,1.11.93,1.94h-.15c.11-.56.31-1.03.59-1.42.29-.39.64-.69,1.06-.9.42-.21.87-.31,1.37-.31.59,0,1.1.14,1.53.41.43.28.76.67.99,1.18.23.51.35,1.12.35,1.82v6.67h-.39v-6.67c0-.96-.22-1.7-.67-2.22-.45-.52-1.05-.78-1.82-.78-.51,0-.97.12-1.39.35-.42.24-.75.58-1,1.02-.25.45-.37.99-.37,1.63v6.67h-.39v-6.67c0-.96-.22-1.7-.66-2.22s-1.03-.78-1.77-.78c-.53,0-1.01.13-1.43.39s-.76.61-1.01,1.06-.37.97-.37,1.56v6.67h-.39Z"/>
      <path d="M438.03,202.42c-.52,0-1-.11-1.44-.34-.44-.22-.79-.55-1.06-.99s-.4-.96-.4-1.57c0-.34.05-.65.15-.95.1-.29.28-.56.54-.8.26-.24.62-.45,1.09-.62s1.06-.31,1.79-.4c.44-.06.85-.11,1.24-.18.39-.07.7-.17.94-.31.24-.14.36-.34.36-.59v-.59c0-.52-.11-.96-.33-1.34-.22-.38-.53-.68-.93-.88-.4-.21-.87-.32-1.41-.32-.45,0-.86.07-1.23.21-.37.14-.69.34-.96.6-.27.26-.47.58-.61.95l-.37-.16c.15-.41.38-.77.69-1.07.31-.3.67-.53,1.1-.69s.89-.24,1.38-.24.91.07,1.29.22.7.36.97.62.47.58.6.94c.14.36.21.75.21,1.17v7.13h-.39v-2.01h-.05c-.19.45-.45.83-.76,1.17s-.68.59-1.08.78-.85.28-1.32.28ZM438.03,202.01c.6,0,1.14-.17,1.63-.51.48-.34.87-.82,1.16-1.43.29-.61.43-1.32.43-2.11v-1.49c-.12.09-.26.17-.42.24s-.34.14-.54.19c-.2.05-.42.1-.66.14-.24.04-.49.08-.77.11-.85.1-1.51.26-2,.47-.48.21-.83.48-1.03.79-.2.32-.3.69-.3,1.11,0,.5.11.93.33,1.31.22.37.52.66.9.87s.81.31,1.27.31Z"/>
      <path d="M445.42,195.54v6.67h-.39v-9.94h.39v2.13h-.1c.2-.76.6-1.33,1.21-1.71.6-.38,1.26-.57,1.98-.57.65,0,1.22.14,1.71.43.49.29.88.69,1.16,1.2s.42,1.1.42,1.79v6.67h-.39v-6.67c0-.9-.27-1.63-.81-2.18-.54-.55-1.24-.83-2.1-.83-.59,0-1.11.13-1.58.39-.46.26-.83.61-1.1,1.06-.27.45-.4.97-.4,1.55Z"/>
      <path d="M458.54,202.35c-.75,0-1.41-.22-2.01-.67-.59-.45-1.06-1.05-1.4-1.82-.35-.77-.52-1.64-.52-2.62s.17-1.85.52-2.62c.34-.77.81-1.38,1.4-1.82.59-.45,1.26-.67,2.01-.67.52,0,.98.1,1.37.29.39.2.71.43.97.69s.46.5.6.72c.14.22.22.35.24.39l-.34.21s-.1-.16-.22-.36c-.12-.2-.3-.41-.54-.65-.23-.23-.52-.44-.87-.61-.34-.17-.75-.26-1.22-.26-.67,0-1.27.2-1.8.61-.53.41-.96.96-1.27,1.67-.31.71-.47,1.52-.47,2.43s.16,1.72.47,2.43.74,1.26,1.27,1.67c.53.4,1.13.6,1.8.6.47,0,.88-.09,1.23-.26.35-.17.65-.38.89-.62.24-.24.42-.45.55-.65.13-.2.2-.32.22-.35l.34.2s-.1.17-.25.39c-.14.21-.35.46-.61.72-.26.26-.6.5-.99.69-.39.2-.85.3-1.38.3Z"/>
      <path d="M468.03,202.42c-.82,0-1.55-.23-2.16-.68-.62-.45-1.1-1.07-1.44-1.85-.34-.78-.51-1.66-.51-2.63s.17-1.85.52-2.62c.34-.78.81-1.39,1.4-1.84.59-.45,1.26-.68,2.01-.68.55,0,1.06.12,1.53.37.47.25.88.59,1.23,1.03s.62.96.81,1.55.29,1.24.29,1.94v.23h-7.58v-.41h7.37l-.17.18c0-.83-.15-1.58-.45-2.26-.3-.68-.71-1.22-1.24-1.62-.52-.4-1.12-.6-1.79-.6s-1.24.2-1.78.61c-.54.41-.96.96-1.28,1.65-.32.7-.48,1.48-.48,2.36v.05c0,.87.15,1.67.44,2.4.29.72.71,1.31,1.27,1.75.56.44,1.23.66,2.02.66.59,0,1.08-.11,1.47-.32.39-.22.71-.47.96-.75.24-.29.42-.52.53-.72l.32.23c-.14.25-.35.52-.63.83-.28.31-.64.57-1.08.8-.44.23-.96.34-1.58.34Z"/>
    </g>
  </g>
  <path d="M480.66,146.21c-.86,0-1.67-.17-2.42-.51-.76-.34-1.42-.81-1.99-1.41s-1.02-1.3-1.35-2.09c-.33-.79-.49-1.64-.49-2.54s.16-1.75.49-2.54c.33-.79.77-1.49,1.35-2.09s1.24-1.07,1.99-1.41,1.56-.51,2.42-.51,1.68.17,2.43.51,1.42.81,1.99,1.41c.57.6,1.02,1.3,1.34,2.09.32.79.48,1.64.48,2.54s-.16,1.75-.48,2.54c-.32.79-.77,1.49-1.34,2.09-.57.6-1.24,1.07-1.99,1.41-.76.34-1.57.51-2.43.51ZM480.66,145.69c1.07,0,2.03-.27,2.9-.82.87-.55,1.56-1.27,2.08-2.19.52-.91.77-1.92.77-3.04s-.26-2.13-.77-3.04c-.51-.91-1.21-1.64-2.08-2.19-.87-.54-1.84-.82-2.9-.82s-2.01.27-2.88.82c-.87.55-1.56,1.27-2.08,2.19-.52.91-.77,1.92-.77,3.04s.26,2.12.77,3.04c.52.91,1.21,1.64,2.08,2.19.87.54,1.83.82,2.88.82ZM478.63,142.6v-6.04h2.47c.39,0,.73.08,1,.23.28.16.48.37.63.64.14.27.21.58.21.94s-.07.65-.21.93c-.14.27-.35.49-.63.65-.27.16-.61.24-1,.24h-2.21v-.52h2.19c.46,0,.8-.12,1.02-.36.22-.24.33-.56.33-.95s-.11-.72-.33-.95c-.22-.22-.56-.34-1.02-.34h-1.95v5.52h-.49ZM482.6,142.6l-1.4-2.73h.54l1.44,2.73h-.58Z"/>
</svg>