<?xml version="1.0" encoding="UTF-8"?>
<svg id="Layer_1" data-name="Layer 1" xmlns="http://www.w3.org/2000/svg" viewBox="0 0 34.49 13.1">
  <defs>
    <style>
      .cls-1 {
        fill: #fff;
      }
    </style>
  </defs>
  <rect width="13.1" height="13.1"/>
  <g>
    <g>
      <path class="cls-1" d="M9.2,3.29c-1.68,0-7.48,0-7.88,0-.01,0-.02,0-.02.02,0,.02,0,.06-.01.14,0,.27,0,1.02,0,1.27,0,.17.01.13.1.14.92,0,7.05,0,7.69,0,1.53.03,1.54,2.18.01,2.21-.59,0-1.39,0-1.94,0-.14,0-.15.01-.16.1,0,.38,0,2.84,0,3.22,0,.14.13.08.28.1.28,0,.73,0,1.01,0,.23.02.2-.1.2-.29,0-.25,0-1.09,0-1.32,0-.12,0-.18.07-.21.2-.06.64,0,.89-.05,3.28-.48,3.08-5.13-.23-5.34h-.01Z"/>
      <path class="cls-1" d="M7.08,5.78c0,.72-.27,1.4-.77,1.9-.38.39-1.07.85-2.19.85-1.94,0-2.96-1.38-2.96-2.75,0-.29.04-.57.13-.83h1.8c-.25.23-.35.54-.35.83,0,.54.36,1.17,1.38,1.17.45,0,.82-.13,1.07-.38.2-.21.32-.49.32-.8,0-.29-.1-.6-.35-.83h1.8c.09.27.13.55.13.83Z"/>
    </g>
    <g>
      <path d="M17.16,8.94c-.42,0-.78-.1-1.11-.3s-.58-.49-.77-.86-.28-.82-.28-1.33.09-.96.28-1.33.44-.66.77-.86.69-.3,1.11-.3.78.1,1.11.3.58.49.76.86.28.82.28,1.33-.09.96-.28,1.33-.44.66-.76.86-.69.3-1.11.3ZM17.16,8.36c.29,0,.55-.07.78-.22s.42-.36.56-.65.21-.64.21-1.05-.07-.77-.21-1.05-.32-.5-.56-.65-.49-.22-.78-.22-.55.07-.79.22-.42.36-.56.65-.21.64-.21,1.05.07.76.21,1.05.32.5.56.65.5.22.79.22Z"/>
      <path d="M20.23,10.23v-5.01h.57v.58h.07c.04-.07.1-.15.17-.25s.18-.19.32-.27.33-.12.56-.12c.3,0,.57.08.8.23s.41.37.54.65.2.61.2,1-.07.72-.2,1-.31.5-.54.66-.5.23-.8.23c-.23,0-.42-.04-.56-.12s-.25-.17-.33-.27-.13-.19-.18-.25h-.05v1.93h-.59ZM21.83,8.43c.23,0,.42-.06.57-.18s.27-.29.35-.5.12-.44.12-.69-.04-.48-.11-.68-.19-.36-.34-.48-.35-.18-.58-.18-.41.06-.56.17-.27.27-.34.47-.12.44-.12.71.04.51.12.71.19.37.35.48.34.17.56.17Z"/>
      <path d="M25.75,5.23v.5h-1.88v-.5h1.88ZM24.41,4.36h.59v3.57c0,.16.03.28.1.36s.18.11.33.11c.04,0,.08,0,.14-.01s.11-.02.16-.03l.12.5c-.06.02-.13.04-.21.05s-.15.02-.23.02c-.31,0-.56-.08-.74-.25s-.26-.4-.26-.7v-3.61Z"/>
      <path d="M26.79,4.63c-.11,0-.21-.04-.29-.11s-.12-.17-.12-.27.04-.2.12-.28.18-.11.29-.11.21.04.29.11.12.17.12.28-.04.2-.12.27-.18.11-.29.11ZM26.5,8.87v-3.64h.59v3.64h-.59Z"/>
      <path d="M28.11,8.87v-4.86h.59v4.86h-.59ZM28.66,7.56v-.73h.11l1.56-1.61h.73l-1.68,1.73h-.07l-.64.6ZM30.42,8.87l-1.39-1.78.42-.41,1.73,2.2h-.75Z"/>
      <path d="M32.8,8.96c-.23,0-.44-.04-.63-.13s-.34-.21-.45-.38-.17-.37-.17-.61c0-.21.04-.38.12-.51s.19-.23.33-.31.29-.13.46-.17.34-.07.51-.09c.22-.03.39-.05.53-.07s.24-.04.3-.08.1-.1.1-.19v-.02c0-.15-.03-.28-.08-.39s-.14-.19-.25-.24-.25-.08-.42-.08-.32.03-.45.08-.22.12-.3.2-.14.16-.17.25l-.56-.19c.09-.22.22-.39.38-.52s.33-.21.52-.27.38-.08.57-.08c.12,0,.26.01.42.04s.31.09.45.17.26.22.36.39.14.4.14.68v2.4h-.58v-.5h-.04c-.04.08-.11.17-.2.26s-.21.17-.36.23-.32.09-.53.09ZM32.9,8.44c.22,0,.4-.04.55-.13s.26-.2.34-.33.12-.28.12-.43v-.51s-.08.05-.16.08-.17.04-.28.06-.2.03-.3.04-.17.02-.23.03c-.14.02-.27.05-.4.09s-.22.1-.29.19-.11.19-.11.33c0,.13.03.23.1.32s.15.15.27.19.24.07.39.07Z"/>
    </g>
  </g>
</svg>