<?xml version="1.0" encoding="UTF-8"?>
<svg id="Layer_1" data-name="Layer 1" xmlns="http://www.w3.org/2000/svg" viewBox="0 0 70.15 22.79">
  <defs>
    <style>
      .cls-1 {
        font-family: MyriadPro-Regular, 'Myriad Pro';
        font-size: 16px;
      }

      .cls-2 {
        fill: #fff;
      }
    </style>
  </defs>
  <rect x="0" y="0" width="22.79" height="22.79" rx="4.58" ry="4.58"/>
  <g>
    <path class="cls-2" d="M16.01,5.13c-2.92,0-13.01,0-13.71,0-.02,0-.03,0-.04.03-.02.03-.02.1-.02.25,0,.48,0,1.78,0,2.22,0,.3.02.23.18.24,1.61,0,12.27,0,13.38,0,2.66.04,2.68,3.79.02,3.85-1.03.02-2.43,0-3.37,0-.24,0-.27.02-.27.17,0,.66,0,4.95,0,5.61,0,.25.22.14.49.17.48,0,1.27,0,1.76,0,.4.04.35-.17.35-.5,0-.43,0-1.89,0-2.3,0-.2,0-.32.11-.36.35-.1,1.11,0,1.55-.08,5.7-.83,5.36-8.93-.4-9.28h-.03Z"/>
    <path class="cls-2" d="M12.32,9.46c0,1.26-.47,2.43-1.34,3.31-.66.68-1.86,1.48-3.81,1.48-3.38,0-5.15-2.41-5.15-4.79,0-.5.08-.99.22-1.45h3.14c-.43.4-.61.95-.61,1.45,0,.94.63,2.04,2.41,2.04.79,0,1.43-.23,1.85-.66.35-.36.55-.85.55-1.39,0-.5-.18-1.05-.61-1.45h3.13c.15.47.22.96.22,1.45Z"/>
  </g>
  <text class="cls-1" transform="translate(25.47 16.09)"><tspan x="0" y="0">Optika</tspan></text>
</svg>