<?xml version="1.0" encoding="UTF-8"?>
<svg id="Layer_1" data-name="Layer 1" xmlns="http://www.w3.org/2000/svg" viewBox="0 0 1920 338.22">
  <defs>
    <style>
      .cls-1 {
        fill: #d3d3d3;
      }
    </style>
  </defs>
  <path class="cls-1" d="M191.83,222.84c4.22-15.05,11.47-27.34,21.92-36.72,17.51-15.73,40.58-23.59,69.2-23.59s51.57,7.77,68.86,23.31c10.44,9.39,17.66,21.76,21.8,37h72.36c-6.09-28.49-20.09-51.87-42.08-70.09-30.42-25.2-70.96-37.79-121.63-37.79-27.99,0-52.71,3.63-74.14,10.9-16.11,5.39-30.93,13.66-44.45,24.82-13.53,11.16-24.2,23.76-32.02,37.8-5.59,10.15-9.64,21.63-12.25,34.36h72.44Z"/>
  <path class="cls-1" d="M572.67,222.84v-56.55h33.55c25.01,0,41.67.63,49.96,1.88,11.27,1.64,20.57,5.71,27.93,12.22,7.35,6.53,11.03,14.8,11.03,24.83,0,6.52-1.77,12.38-5.13,17.62h74.95c1.14-5.73,1.73-11.85,1.73-18.38,0-21.93-6.64-39.83-19.93-53.68-13.29-13.85-29.79-22.85-49.51-26.98-12.81-2.75-40.35-4.14-82.57-4.14h-111.43v103.18h69.44Z"/>
  <polygon class="cls-1" points="970.06 222.84 970.06 166.29 1071.87 166.29 1071.87 119.66 798.57 119.66 798.57 166.29 900.62 166.29 900.62 222.84 970.06 222.84"/>
  <rect class="cls-1" x="1114.09" y="119.66" width="69.44" height="103.18"/>
  <polygon class="cls-1" points="1428.79 222.84 1553.23 119.66 1459.86 119.66 1341.61 222.84 1428.79 222.84"/>
  <rect class="cls-1" x="1250.14" y="119.66" width="69.44" height="103.18"/>
  <polygon class="cls-1" points="1693.04 222.84 1710.7 183.97 1728.71 222.84 1799.78 222.84 1748.24 119.66 1674.81 119.66 1624.67 222.84 1693.04 222.84"/>
</svg>