<?xml version="1.0" encoding="UTF-8"?>
<svg id="Layer_2" data-name="Layer 2" xmlns="http://www.w3.org/2000/svg" viewBox="0 0 357.49 357.72">
  <defs>
    <style>
      .cls-1 {
        fill: #fff;
      }
    </style>
  </defs>
  <g id="Layer_1-2" data-name="Layer 1">
    <path d="M178.78,0C28.87.1-53.65,174.48,39.11,290.24c7.73,9.36,11.3,12.94,7.89,25.43-2.82,12.94-7.27,27.98-9.09,39.29-.15,2.83,1.53,2.74,5.56,2.76,19.65-.06,70.19-.35,100.01-.47,10.01-.1,19.67-.12,28.83.19,27.07.88,55.18-4.44,79.22-15.31C426.78,259.6,372.19,4.06,178.99,0h-.21Z"/>
    <g>
      <circle class="cls-1" cx="220.42" cy="178.95" r="16.08"/>
      <circle class="cls-1" cx="178.88" cy="178.95" r="16.08"/>
      <circle class="cls-1" cx="137.33" cy="178.95" r="16.08"/>
    </g>
    <path class="cls-1" d="M178.88,323.73c-79.95,0-144.99-65.04-144.99-144.99S98.93,33.75,178.88,33.75s144.99,65.04,144.99,144.99-65.04,144.99-144.99,144.99ZM178.88,72.75c-58.44,0-105.99,47.55-105.99,105.99s47.55,105.99,105.99,105.99,105.99-47.55,105.99-105.99-47.55-105.99-105.99-105.99Z"/>
  </g>
</svg>