<?xml version="1.0" encoding="UTF-8"?>
<svg id="Layer_1" data-name="Layer 1" xmlns="http://www.w3.org/2000/svg" viewBox="0 0 1920 149.89">
  <defs>
    <style>
      .cls-1 {
        fill: #fff;
      }
    </style>
  </defs>
  <path class="cls-1" d="M81.97,149.89c4.82-17.21,13.12-31.25,25.05-41.97,20.02-17.98,46.38-26.97,79.1-26.97s58.95,8.88,78.72,26.65c11.93,10.74,20.19,24.87,24.91,42.29h82.71c-6.97-32.57-22.96-59.29-48.11-80.11-34.77-28.8-81.11-43.2-139.03-43.2-32,0-60.25,4.15-84.75,12.46-18.41,6.16-35.35,15.62-50.81,28.37-15.47,12.76-27.67,27.16-36.6,43.21-6.39,11.61-11.02,24.73-14,39.27h82.8Z"/>
  <path class="cls-1" d="M517.3,149.89v-64.64h38.35c28.59,0,47.63.72,57.11,2.15,12.89,1.87,23.52,6.52,31.92,13.97,8.4,7.46,12.61,16.91,12.61,28.38,0,7.46-2.02,14.15-5.87,20.14h85.67c1.3-6.55,1.97-13.55,1.97-21.01,0-25.07-7.6-45.53-22.79-61.36-15.19-15.83-34.06-26.12-56.59-30.85-14.65-3.14-46.12-4.73-94.38-4.73h-127.38v117.95h79.38Z"/>
  <polygon class="cls-1" points="971.56 149.89 971.56 85.25 1087.93 85.25 1087.93 31.95 775.53 31.95 775.53 85.25 892.18 85.25 892.18 149.89 971.56 149.89"/>
  <rect class="cls-1" x="1136.2" y="31.95" width="79.38" height="117.94"/>
  <polygon class="cls-1" points="1495.93 149.89 1638.18 31.95 1531.45 31.95 1396.28 149.89 1495.93 149.89"/>
  <rect class="cls-1" x="1291.71" y="31.95" width="79.38" height="117.95"/>
  <polygon class="cls-1" points="1798 149.89 1818.18 105.46 1838.76 149.89 1920 149.89 1861.09 31.94 1777.15 31.94 1719.83 149.89 1798 149.89"/>
</svg>